# Blender 5.0.1
# www.blender.org
mtllib gloves R.mtl
o glove_R
v -1.815822 2.425052 -0.187197
v -1.608210 2.390873 -0.443754
v -1.830903 2.425944 0.125382
v -1.598422 2.397383 0.386507
v -1.049249 2.318457 -0.030578
v -1.452329 2.368074 -0.443322
v -1.820313 2.425742 -0.032986
v -1.429307 2.373232 0.394199
v -1.458088 2.228791 0.435006
v -1.423930 2.532369 0.384150
v -1.884237 2.282260 -0.021612
v -1.818500 2.579608 -0.036781
v -1.474531 2.228971 -0.447533
v -1.424210 2.507859 -0.465978
v -1.038525 2.166048 -0.023014
v -1.012813 2.458881 -0.034046
v -1.633415 2.253986 0.428925
v -1.886223 2.282048 0.149508
v -1.831345 2.584371 0.125644
v -1.591731 2.554327 0.386682
v -1.872801 2.279748 -0.191154
v -1.643324 2.254179 -0.447113
v -1.587175 2.532707 -0.465741
v -1.816575 2.575835 -0.197252
v -1.032673 2.166964 0.149824
v -1.286119 2.204190 0.433356
v -1.255498 2.508029 0.386065
v -1.007169 2.462655 0.130544
v -1.305596 2.202123 -0.443799
v -1.040432 2.163871 -0.192333
v -1.011626 2.452907 -0.207119
v -1.261433 2.482775 -0.466139
v -1.051596 2.315838 -0.198295
v -1.296530 2.344951 -0.443283
v -1.266045 2.349087 0.395083
v -1.039742 2.317709 0.129833
v -1.829822 2.511418 -0.036524
v -1.018028 2.393024 -0.033926
v -1.601099 2.460697 -0.470318
v -1.019128 2.387298 -0.209268
v -1.842551 2.510972 0.127889
v -1.437602 2.436732 -0.470616
v -1.254705 2.428902 0.401739
v -1.425336 2.453951 0.400080
v -1.598566 2.477046 0.397237
v -1.827745 2.511233 -0.198398
v -1.274157 2.412718 -0.470939
v -1.010897 2.393144 0.133058
v -1.009608 2.224158 0.151618
v -1.627642 2.313104 0.437765
v -1.291400 2.260631 -0.470355
v -1.444146 2.286419 0.447302
v -1.883223 2.340733 -0.025187
v -1.465142 2.287705 -0.472979
v -1.873630 2.339460 -0.198735
v -1.016327 2.224111 -0.025511
v -1.886631 2.345257 0.149439
v -1.638649 2.313396 -0.472058
v -1.018430 2.221941 -0.202835
v -1.266441 2.260386 0.445623
v -1.777483 2.270248 0.310691
v -1.731758 2.572361 0.276317
v -1.734801 2.413660 0.276555
v -1.741056 2.498785 0.282501
v -1.776823 2.333600 0.315393
v -1.713094 2.555137 -0.363968
v -1.768082 2.271325 -0.350594
v -1.723970 2.412266 -0.348495
v -1.725470 2.490872 -0.368084
v -1.768540 2.331341 -0.368149
v -1.120460 2.463879 -0.381194
v -1.159792 2.180378 -0.353029
v -1.161459 2.325952 -0.364642
v -1.131698 2.396177 -0.385659
v -1.140729 2.238225 -0.378030
v -1.114036 2.483992 0.282428
v -1.139778 2.184877 0.321038
v -1.133442 2.330604 0.288510
v -1.113760 2.412024 0.291725
v -1.116560 2.240212 0.328807
v -1.426235 2.553112 0.346732
v -1.787578 2.594870 -0.037018
v -1.423721 2.527269 -0.432562
v -1.046623 2.484052 -0.033660
v -1.799486 2.599611 0.111925
v -1.579661 2.573201 0.350512
v -1.573581 2.550306 -0.432589
v -1.785938 2.590886 -0.184091
v -1.271834 2.531129 0.347690
v -1.041479 2.488200 0.117114
v -1.044349 2.477818 -0.195484
v -1.273882 2.504269 -0.433006
v -1.708046 2.589145 0.250289
v -1.690044 2.571318 -0.338097
v -1.144128 2.487165 -0.354819
v -1.141280 2.508560 0.254480
v -1.423673 2.535459 0.316575
v -1.755945 2.580153 -0.037046
v -1.423125 2.509069 -0.401109
v -1.076269 2.479908 -0.033160
v -1.767741 2.578605 0.100148
v -1.565068 2.553863 0.320431
v -1.560473 2.530421 -0.401442
v -1.754289 2.579118 -0.171916
v -1.281585 2.515156 0.317577
v -1.071184 2.481017 0.105056
v -1.074560 2.470275 -0.183492
v -1.286033 2.488467 -0.401578
v -1.683377 2.566529 0.228631
v -1.666452 2.554317 -0.314876
v -1.167669 2.471648 -0.329818
v -1.162245 2.496393 0.231606
v -1.457018 2.220733 0.405870
v -1.856932 2.270565 -0.021431
v -1.473478 2.221074 -0.419014
v -1.066461 2.162319 -0.022677
v -1.620637 2.244118 0.400993
v -1.859043 2.270240 0.138635
v -1.846627 2.268070 -0.179556
v -1.631046 2.244585 -0.418987
v -1.060271 2.163295 0.139437
v -1.295816 2.197891 0.405621
v -1.315846 2.196079 -0.415587
v -1.068427 2.160316 -0.180696
v -1.755620 2.259149 0.290209
v -1.747456 2.260040 -0.328978
v -1.179790 2.175689 -0.330305
v -1.159798 2.179926 0.300091
v -1.456201 2.245142 0.390222
v -1.841979 2.292098 -0.021812
v -1.474643 2.245721 -0.406670
v -1.083491 2.189799 -0.022523
v -1.614342 2.267794 0.384618
v -1.844832 2.292063 0.131540
v -1.832636 2.289844 -0.172793
v -1.625503 2.268198 -0.406735
v -1.076298 2.190560 0.134028
v -1.300303 2.222844 0.391447
v -1.323616 2.221977 -0.404150
v -1.085676 2.187831 -0.175404
v -1.744634 2.281875 0.277666
v -1.737071 2.282350 -0.318216
v -1.192950 2.202353 -0.322282
v -1.170204 2.205668 0.289910
v -1.025727 2.281999 0.139655
v -1.611355 2.365655 0.410061
v -1.293970 2.313568 -0.456008
v -1.841840 2.392792 -0.192500
v -1.435547 2.340390 0.418735
v -1.848651 2.393641 -0.029478
v -1.458011 2.338513 -0.457238
v -1.034086 2.282401 -0.028361
v -1.856102 2.395863 0.136304
v -1.621997 2.362585 -0.457019
v -1.036402 2.279975 -0.200496
v -1.265711 2.315429 0.418323
v -1.753754 2.383901 0.294363
v -1.744153 2.382312 -0.357637
v -1.151770 2.292995 -0.371087
v -1.125267 2.296269 0.306905
v -1.830640 2.468211 -0.034605
v -1.028117 2.353785 -0.032058
v -1.607098 2.424860 -0.462765
v -1.029887 2.349542 -0.205970
v -1.842342 2.468006 0.128911
v -1.445183 2.401182 -0.462789
v -1.258092 2.387444 0.404550
v -1.427287 2.412416 0.403469
v -1.600868 2.436349 0.397869
v -1.827243 2.467720 -0.194840
v -1.283331 2.377231 -0.462857
v -1.019752 2.353425 0.133918
v -1.742189 2.455595 0.283940
v -1.728878 2.450988 -0.362674
v -1.142621 2.359187 -0.379757
v -1.119349 2.369511 0.294747
vn -0.7609 0.6094 0.2228
vn -0.7144 0.6747 0.1854
vn -0.7629 0.6454 -0.0382
vn -0.8075 0.5885 -0.0404
vn -0.2467 0.4286 -0.8692
vn -0.1976 0.4929 -0.8474
vn 0.0619 0.4023 -0.9134
vn 0.0541 0.3424 -0.9380
vn 0.3501 0.4787 0.8052
vn 0.3553 0.1609 0.9208
vn 0.0108 0.2111 0.9774
vn 0.0558 0.5205 0.8521
vn 0.9025 0.3285 -0.2783
vn 0.8811 0.3803 -0.2810
vn 0.9965 -0.0772 -0.0323
vn 0.9426 0.3324 -0.0315
vn 0.2831 0.3777 -0.8816
vn 0.2983 0.3149 -0.9010
vn -0.1992 0.6386 0.7433
vn -0.2275 0.5705 0.7892
vn -0.7334 0.6364 -0.2389
vn -0.7794 0.5731 -0.2532
vn 0.9727 -0.0302 0.2302
vn 0.9099 0.3559 0.2131
vn -0.7323 0.0932 0.6745
vn -0.5676 0.5791 0.5852
vn -0.7868 0.5763 0.2209
vn -0.9650 0.0876 0.2473
vn -0.7305 0.1395 -0.6685
vn -0.6237 -0.6078 -0.4915
vn -0.8054 -0.5425 -0.2387
vn -0.9247 0.2276 -0.3051
vn 0.6728 -0.1113 -0.7314
vn 0.3675 -0.7838 -0.5006
vn 0.0811 -0.7530 -0.6530
vn 0.2695 -0.0967 -0.9581
vn 0.7460 -0.0114 0.6659
vn 0.4384 -0.7473 0.4994
vn 0.6210 -0.7565 0.2052
vn 0.9656 -0.0436 0.2562
vn -0.7996 0.5982 -0.0521
vn -0.9955 0.0829 -0.0460
vn 0.0059 0.1225 0.9925
vn 0.0789 0.5845 0.8075
vn -0.2151 0.5578 0.8016
vn -0.3227 0.1085 0.9403
vn -0.3319 -0.0103 -0.9433
vn -0.2030 0.5315 -0.8223
vn 0.0785 0.5208 -0.8501
vn -0.0119 -0.0728 -0.9973
vn -0.7651 0.5878 -0.2628
vn -0.9556 0.0848 -0.2821
vn 0.3343 0.1008 0.9371
vn 0.3304 0.5417 0.7729
vn 0.9861 -0.1649 -0.0198
vn 0.9099 0.4139 -0.0281
vn 0.8834 0.4102 0.2265
vn 0.9585 -0.1055 0.2649
vn 0.9393 -0.1939 -0.2832
vn 0.8939 0.3733 -0.2483
vn 0.3085 0.4602 -0.8325
vn 0.2483 -0.1210 -0.9611
vn 0.7130 -0.2191 0.6660
vn 0.7583 0.0538 0.6497
vn 0.9091 -0.3294 0.2549
vn 0.5962 -0.4399 -0.6716
vn 0.5261 -0.5807 -0.6213
vn 0.1366 -0.5436 -0.8281
vn 0.1907 -0.3997 -0.8966
vn -0.7618 -0.1774 -0.6230
vn -0.7520 -0.3221 -0.5751
vn -0.9304 -0.2772 -0.2399
vn -0.9543 -0.1396 -0.2641
vn -0.5652 0.5939 0.5725
vn -0.5272 0.6594 0.5360
vn -0.5563 0.5882 -0.5869
vn -0.7455 0.0689 -0.6630
vn 0.6691 0.4080 -0.6211
vn 0.6723 -0.1814 -0.7177
vn 0.6687 0.4935 0.5562
vn 0.7367 0.0062 0.6762
vn -0.0524 -0.3542 -0.9337
vn 0.8649 -0.4261 -0.2654
vn 0.9229 -0.3843 -0.0240
vn 0.3090 -0.1277 0.9425
vn -0.0295 -0.0831 0.9961
vn -0.9913 -0.1236 -0.0460
vn -0.3698 -0.2829 -0.8850
vn -0.3061 0.0311 0.9515
vn -0.9618 -0.1174 0.2471
vn -0.7328 0.0357 0.6795
vn -0.6419 -0.5573 0.5266
vn -0.7013 0.2567 0.6651
vn -0.9200 0.2772 0.2769
vn -0.8269 -0.5117 0.2331
vn 0.7133 0.3975 0.5773
vn 0.6755 0.2939 -0.6762
vn -0.6185 0.5132 -0.5950
vn 0.6167 -0.7872 -0.0079
vn 0.9989 -0.0395 -0.0256
vn -0.8397 -0.5423 -0.0283
vn -0.9612 0.2726 -0.0416
vn -0.1087 -0.6676 0.7365
vn 0.0022 0.1419 0.9899
vn -0.3243 0.2003 0.9245
vn -0.3616 -0.5785 0.7312
vn -0.1094 -0.7458 -0.6571
vn -0.0036 -0.0581 -0.9983
vn 0.6034 -0.7674 -0.2169
vn 0.9481 -0.0728 -0.3096
vn 0.1365 -0.6845 0.7161
vn 0.3447 0.0599 0.9368
vn -0.3404 -0.6681 -0.6617
vn -0.3304 0.0214 -0.9436
vn -0.3802 -0.4373 -0.8150
vn 0.7889 -0.5660 -0.2391
vn 0.1515 0.9884 -0.0054
vn 0.1545 0.9845 -0.0833
vn 0.0677 0.9967 0.0459
vn -0.0348 0.9994 0.0093
vn 0.0105 0.9998 -0.0186
vn 0.1648 0.9841 0.0669
vn 0.1337 0.9909 -0.0154
vn 0.0938 0.9906 0.0999
vn 0.0576 0.9923 -0.1098
vn 0.1183 0.9847 -0.1280
vn -0.0580 0.9956 -0.0743
vn 0.1943 0.9809 0.0118
vn 0.2163 0.9757 -0.0349
vn 0.2831 0.9591 0.0012
vn 0.1830 0.9810 -0.0645
vn 0.2519 0.9662 -0.0542
vn 0.4409 0.8975 0.0091
vn 0.3952 0.9173 0.0485
vn 0.4424 0.8374 -0.3209
vn 0.4992 0.8598 -0.1076
vn -0.1855 0.9740 -0.1301
vn -0.1617 0.9306 -0.3283
vn -0.0103 0.8925 -0.4510
vn 0.1139 0.8601 -0.4972
vn 0.4115 0.8873 0.2085
vn 0.2685 0.8716 0.4101
vn -0.1937 0.9806 -0.0318
vn -0.2012 0.9295 0.3091
vn -0.2345 0.9697 0.0688
vn 0.1323 0.8605 0.4919
vn 0.0036 0.8886 0.4587
vn 0.2359 0.8606 -0.4513
vn 0.2712 -0.9624 0.0171
vn 0.1388 -0.9862 -0.0900
vn -0.1256 -0.9262 -0.3555
vn -0.2148 -0.9503 -0.2254
vn -0.3306 -0.9227 0.1982
vn -0.2453 -0.9315 0.2687
vn 0.1221 -0.9686 -0.2168
vn -0.0447 -0.9729 -0.2271
vn -0.3399 -0.9393 -0.0460
vn -0.4340 -0.9007 0.0207
vn -0.0450 -0.9609 0.2731
vn 0.1299 -0.9650 0.2278
vn -0.1435 -0.9025 0.4061
vn -0.3231 -0.9435 0.0740
vn 0.1591 -0.9825 0.0966
vn -0.3385 -0.9237 -0.1792
vn -0.8524 -0.5221 0.0284
vn -0.8018 -0.5387 0.2587
vn -0.6727 -0.4986 -0.5467
vn -0.8312 -0.5215 -0.1927
vn -0.2761 -0.4636 0.8419
vn -0.0755 -0.4431 0.8933
vn 0.8284 -0.5589 0.0373
vn 0.7747 -0.5898 -0.2278
vn 0.5735 -0.5886 -0.5697
vn 0.2344 -0.5914 -0.7715
vn -0.0607 -0.5350 -0.8427
vn 0.2291 -0.5080 0.8303
vn 0.5919 -0.5491 0.5901
vn -0.6100 -0.4966 0.6174
vn 0.7740 -0.5759 0.2633
vn -0.3217 -0.5229 -0.7893
vn 0.6521 0.3473 -0.6738
vn -0.5766 0.5783 -0.5772
vn -0.3597 -0.2786 0.8905
vn -0.4110 -0.2749 0.8692
vn -0.7388 -0.2520 0.6251
vn -0.7301 -0.2519 0.6352
vn -0.9365 -0.2608 0.2343
vn -0.9675 -0.2486 -0.0455
vn -0.0719 -0.4919 -0.8677
vn -0.0840 -0.2838 0.9552
vt 0.674805 0.439809
vt 0.675090 0.483624
vt 0.728629 0.492806
vt 0.728385 0.447985
vt 0.891619 0.451215
vt 0.892380 0.489982
vt 0.944301 0.491297
vt 0.944301 0.452915
vt 0.447977 0.434257
vt 0.447119 0.477713
vt 0.500516 0.481712
vt 0.501126 0.440638
vt 0.223856 0.453614
vt 0.223175 0.497782
vt 0.278624 0.497128
vt 0.278646 0.455955
vt 0.055699 0.452915
vt 0.055699 0.491297
vt 0.106679 0.493028
vt 0.107791 0.454326
vt 0.556598 0.483384
vt 0.557011 0.438014
vt 0.780456 0.494125
vt 0.781201 0.446430
vt 0.331742 0.488572
vt 0.332309 0.445779
vt 0.615278 0.575925
vt 0.615765 0.658715
vt 0.672426 0.658023
vt 0.673346 0.579754
vt 0.842140 0.388703
vt 0.841163 0.319121
vt 0.781845 0.316460
vt 0.782080 0.379712
vt 0.161986 0.392330
vt 0.164336 0.320336
vt 0.110601 0.324554
vt 0.109809 0.395824
vt 0.393470 0.378094
vt 0.394222 0.312943
vt 0.332626 0.319695
vt 0.333046 0.383374
vt 0.725348 0.672597
vt 0.726956 0.588451
vt 0.502086 0.571880
vt 0.504625 0.664650
vt 0.559668 0.651342
vt 0.557622 0.570054
vt 0.892894 0.577243
vt 0.892430 0.652437
vt 0.944301 0.663481
vt 0.944301 0.579543
vt 0.778618 0.663455
vt 0.779966 0.592014
vt 0.447546 0.565433
vt 0.449576 0.650055
vt 0.279725 0.587432
vt 0.281253 0.668082
vt 0.334827 0.653241
vt 0.333385 0.579664
vt 0.223047 0.586173
vt 0.224361 0.657794
vt 0.055699 0.579544
vt 0.055699 0.663481
vt 0.109713 0.655212
vt 0.107877 0.580008
vt 0.392036 0.526549
vt 0.391663 0.483978
vt 0.332887 0.535172
vt 0.158330 0.538516
vt 0.158160 0.491097
vt 0.107404 0.537848
vt 0.842614 0.540199
vt 0.842248 0.494461
vt 0.780288 0.543740
vt 0.614975 0.441491
vt 0.614989 0.482785
vt 0.841661 0.660191
vt 0.842726 0.585968
vt 0.160299 0.655803
vt 0.158593 0.581843
vt 0.393743 0.655246
vt 0.392153 0.573916
vt 0.055699 0.536510
vt 0.223021 0.542486
vt 0.279255 0.540761
vt 0.447231 0.521264
vt 0.501225 0.526143
vt 0.727684 0.539003
vt 0.892531 0.535871
vt 0.944301 0.536510
vt 0.557099 0.526303
vt 0.673919 0.533391
vt 0.614944 0.528845
vt 0.614906 0.309703
vt 0.614491 0.378449
vt 0.674133 0.378144
vt 0.674232 0.314779
vt 0.392602 0.442398
vt 0.159683 0.452998
vt 0.842102 0.452856
vt 0.278310 0.314144
vt 0.278694 0.387124
vt 0.728291 0.308904
vt 0.728013 0.376380
vt 0.503597 0.307375
vt 0.501524 0.374584
vt 0.557230 0.375333
vt 0.558594 0.316579
vt 0.055699 0.315930
vt 0.055699 0.390804
vt 0.225504 0.325091
vt 0.224522 0.389144
vt 0.450350 0.314641
vt 0.448382 0.373046
vt 0.890431 0.326104
vt 0.890979 0.394297
vt 0.944301 0.390804
vt 0.944301 0.315930
vt 0.055699 0.708209
vt 0.108104 0.702103
vt 0.616335 0.703083
vt 0.672866 0.699790
vt 0.724833 0.711305
vt 0.451378 0.703652
vt 0.506243 0.712039
vt 0.560362 0.700914
vt 0.839531 0.704582
vt 0.891201 0.699599
vt 0.776649 0.704824
vt 0.394843 0.709390
vt 0.282213 0.716678
vt 0.335363 0.706505
vt 0.160175 0.704307
vt 0.944301 0.708209
vt 0.224943 0.708169
vt 0.724653 0.750272
vt 0.775523 0.750272
vt 0.614571 0.750272
vt 0.672717 0.750272
vt 0.334961 0.750272
vt 0.394046 0.750272
vt 0.449965 0.750272
vt 0.504098 0.750272
vt 0.839490 0.750272
vt 0.891879 0.750272
vt 0.282798 0.750272
vt 0.160570 0.750272
vt 0.225982 0.750272
vt 0.055699 0.750272
vt 0.107983 0.750272
vt 0.557893 0.750272
vt 0.944301 0.750272
vt 0.729672 0.278117
vt 0.676107 0.280527
vt 0.503207 0.278427
vt 0.449752 0.282666
vt 0.164377 0.286177
vt 0.110574 0.286812
vt 0.615461 0.278888
vt 0.557902 0.282605
vt 0.331107 0.287786
vt 0.277483 0.284757
vt 0.892152 0.286305
vt 0.842328 0.281874
vt 0.944301 0.281660
vt 0.225549 0.289933
vt 0.782524 0.282176
vt 0.393064 0.281866
vt 0.055699 0.281660
vt 0.276770 0.249728
vt 0.224256 0.249728
vt 0.393306 0.249728
vt 0.330593 0.249728
vt 0.108211 0.249728
vt 0.055699 0.249728
vt 0.730993 0.249728
vt 0.678317 0.249728
vt 0.617368 0.249728
vt 0.559275 0.249728
vt 0.504376 0.249728
vt 0.891919 0.249728
vt 0.842767 0.249728
vt 0.944301 0.249728
vt 0.161594 0.249728
vt 0.782950 0.249728
vt 0.450289 0.249728
s 1
usemtl gloves
f 153/1/1 3/2/2 7/3/3 150/4/4
f 154/5/5 2/6/6 6/7/7 151/8/8
f 156/9/9 35/10/10 8/11/11 149/12/12
f 155/13/13 33/14/14 5/15/15 152/16/16
f 151/17/8 6/18/7 34/19/17 147/20/18
f 149/12/12 8/11/11 4/21/19 146/22/20
f 150/4/4 7/3/3 1/23/21 148/24/22
f 152/16/16 5/15/15 36/25/23 145/26/24
f 64/27/25 62/28/26 19/29/27 41/30/28
f 70/31/29 67/32/30 21/33/31 55/34/32
f 75/35/33 72/36/34 29/37/35 51/38/36
f 80/39/37 77/40/38 25/41/39 49/42/40
f 41/30/28 19/29/27 12/43/41 37/44/42
f 44/45/43 10/46/44 20/47/45 45/48/46
f 39/49/47 23/50/48 14/51/49 42/52/50
f 37/44/42 12/43/41 24/53/51 46/54/52
f 43/55/53 27/56/54 10/46/44 44/45/43
f 38/57/55 16/58/56 28/59/57 48/60/58
f 40/61/59 31/62/60 16/58/56 38/57/55
f 42/63/50 14/64/49 32/65/61 47/66/62
f 176/67/63 78/68/64 36/25/23 172/69/65
f 175/70/66 73/71/67 34/19/68 171/72/69
f 174/73/70 68/74/71 1/23/72 170/75/73
f 157/76/74 63/77/75 3/2/2 153/1/1
f 66/78/76 69/79/77 46/54/52 24/53/51
f 71/80/78 74/81/79 47/66/62 32/65/61
f 76/82/80 79/83/81 48/60/58 28/59/57
f 166/84/82 42/63/50 47/66/62 171/72/69
f 164/85/83 40/61/59 38/57/55 162/86/84
f 162/86/84 38/57/55 48/60/58 172/69/65
f 167/87/85 43/55/53 44/45/43 168/88/86
f 161/89/87 37/44/42 46/54/52 170/75/73
f 163/90/88 39/49/47 42/52/50 166/91/82
f 168/88/86 44/45/43 45/48/46 169/92/89
f 165/93/90 41/30/28 37/44/42 161/89/87
f 173/94/91 64/27/25 41/30/28 165/93/90
f 61/95/92 65/96/93 57/97/94 18/98/95
f 160/99/96 80/39/37 49/42/40 145/26/24
f 159/100/97 75/35/33 51/38/36 147/20/18
f 158/101/98 70/31/29 55/34/32 148/24/22
f 15/102/99 56/103/100 49/42/40 25/41/39
f 11/104/101 53/105/102 55/34/32 21/33/31
f 9/106/103 52/107/104 50/108/105 17/109/106
f 13/110/107 54/111/108 51/38/36 29/37/35
f 30/112/109 59/113/110 56/103/100 15/102/99
f 26/114/111 60/115/112 52/107/104 9/106/103
f 22/116/113 58/117/114 54/118/108 13/119/107
f 18/98/95 57/97/94 53/105/102 11/104/101
f 17/109/106 50/108/105 65/96/93 61/95/92
f 169/92/89 45/48/46 64/27/25 173/94/91
f 146/22/20 4/21/19 63/77/75 157/76/74
f 45/48/46 20/47/45 62/28/26 64/27/25
f 154/5/5 58/117/114 70/31/29 158/101/98
f 23/50/48 39/49/47 69/79/77 66/78/76
f 163/90/88 2/6/115 68/74/71 174/73/70
f 58/117/114 22/116/113 67/32/30 70/31/29
f 155/13/13 59/113/110 75/35/33 159/100/97
f 31/62/60 40/61/59 74/81/79 71/80/78
f 164/85/83 33/14/116 73/71/67 175/70/66
f 59/113/110 30/112/109 72/36/34 75/35/33
f 156/9/9 60/115/112 80/39/37 160/99/96
f 27/56/54 43/55/53 79/83/81 76/82/80
f 167/87/85 35/10/10 78/68/64 176/67/63
f 60/115/112 26/114/111 77/40/38 80/39/37
f 32/65/61 14/64/49 83/120/117 92/121/118
f 19/29/27 62/28/26 93/122/119 85/123/120
f 12/43/41 19/29/27 85/123/120 82/124/121
f 10/46/44 27/56/54 89/125/122 81/126/123
f 62/28/26 20/47/45 86/127/124 93/122/119
f 23/50/48 66/78/76 94/128/125 87/129/126
f 66/78/76 24/53/51 88/130/127 94/128/125
f 20/47/45 10/46/44 81/126/123 86/127/124
f 27/56/54 76/82/80 96/131/128 89/125/122
f 28/59/57 16/58/56 84/132/129 90/133/130
f 71/80/78 32/65/61 92/121/118 95/134/131
f 14/51/49 23/50/48 87/129/126 83/135/117
f 16/58/56 31/62/60 91/136/132 84/132/129
f 76/82/80 28/59/57 90/133/130 96/131/128
f 31/62/60 71/80/78 95/134/131 91/136/132
f 24/53/51 12/43/41 82/124/121 88/130/127
f 88/130/127 82/124/121 98/137/133 104/138/134
f 85/123/120 93/122/119 109/139/135 101/140/136
f 96/131/128 90/133/130 106/141/137 112/142/138
f 81/126/123 89/125/122 105/143/139 97/144/140
f 87/129/126 94/128/125 110/145/141 103/146/142
f 90/133/130 84/132/129 100/147/143 106/141/137
f 91/136/132 95/134/131 111/148/144 107/149/145
f 84/132/129 91/136/132 107/149/145 100/147/143
f 89/125/122 96/131/128 112/142/138 105/143/139
f 92/121/118 83/120/117 99/150/146 108/151/147
f 82/124/121 85/123/120 101/140/136 98/137/133
f 93/122/119 86/127/124 102/152/148 109/139/135
f 86/127/124 81/126/123 97/144/140 102/152/148
f 94/128/125 88/130/127 104/138/134 110/145/141
f 83/135/117 87/129/126 103/146/142 99/153/146
f 95/134/131 92/121/118 108/151/147 111/148/144
f 18/98/95 11/104/101 114/154/149 118/155/150
f 26/114/111 9/106/103 113/156/151 122/157/152
f 29/37/35 72/36/34 127/158/153 123/159/154
f 61/95/92 18/98/95 118/155/150 125/160/155
f 9/106/103 17/109/106 117/161/156 113/156/151
f 15/102/99 25/41/39 121/162/157 116/163/158
f 67/32/30 22/116/113 120/164/159 126/165/160
f 22/116/113 13/119/107 115/166/161 120/164/159
f 30/112/109 15/102/99 116/163/158 124/167/162
f 21/33/31 67/32/30 126/165/160 119/168/163
f 25/41/39 77/40/38 128/169/164 121/162/157
f 72/36/34 30/112/109 124/167/162 127/158/153
f 11/104/101 21/33/31 119/168/163 114/154/149
f 17/109/106 61/95/92 125/160/155 117/161/156
f 13/110/107 29/37/35 123/159/154 115/170/161
f 77/40/38 26/114/111 122/157/152 128/169/164
f 124/167/162 116/163/158 132/171/165 140/172/166
f 121/162/157 128/169/164 144/173/167 137/174/168
f 115/170/161 123/159/154 139/175/169 131/176/170
f 118/155/150 114/154/149 130/177/171 134/178/172
f 125/160/155 118/155/150 134/178/172 141/179/173
f 113/156/151 117/161/156 133/180/174 129/181/175
f 126/165/160 120/164/159 136/182/176 142/183/177
f 120/164/159 115/166/161 131/184/170 136/182/176
f 127/158/153 124/167/162 140/172/166 143/185/178
f 114/154/149 119/168/163 135/186/179 130/177/171
f 117/161/156 125/160/155 141/179/173 133/180/174
f 128/169/164 122/157/152 138/187/180 144/173/167
f 122/157/152 113/156/151 129/181/175 138/187/180
f 119/168/163 126/165/160 142/183/177 135/186/179
f 116/163/158 121/162/157 137/174/168 132/171/165
f 123/159/154 127/158/153 143/185/178 139/175/169
f 35/10/10 156/9/9 160/99/96 78/68/64
f 33/14/14 155/13/13 159/100/97 73/71/181
f 2/6/6 154/5/5 158/101/98 68/74/182
f 50/108/105 146/22/20 157/76/74 65/96/93
f 68/74/182 158/101/98 148/24/22 1/23/21
f 73/71/181 159/100/97 147/20/18 34/19/17
f 78/68/64 160/99/96 145/26/24 36/25/23
f 65/96/93 157/76/74 153/1/1 57/97/94
f 56/103/100 152/16/16 145/26/24 49/42/40
f 53/105/102 150/4/4 148/24/22 55/34/32
f 52/107/104 149/12/12 146/22/20 50/108/105
f 54/111/108 151/17/8 147/20/18 51/38/36
f 59/113/110 155/13/13 152/16/16 56/103/100
f 60/115/112 156/9/9 149/12/12 52/107/104
f 58/117/114 154/5/5 151/8/8 54/118/108
f 57/97/94 153/1/1 150/4/4 53/105/102
f 43/55/53 167/87/85 176/67/63 79/83/81
f 40/61/59 164/85/83 175/70/66 74/81/79
f 39/49/47 163/90/88 174/73/70 69/79/77
f 4/21/183 169/92/184 173/94/185 63/77/186
f 63/77/186 173/94/185 165/93/90 3/2/187
f 3/2/187 165/93/90 161/89/87 7/3/188
f 8/11/11 168/88/86 169/92/89
f 2/6/115 163/90/88 166/91/82 6/7/189
f 7/3/188 161/89/87 170/75/73 1/23/72
f 35/10/10 167/87/85 168/88/86 8/11/11
f 5/15/15 162/86/84 172/69/65 36/25/23
f 33/14/116 164/85/83 162/86/84 5/15/15
f 6/18/189 166/84/82 171/72/69 34/19/68
f 69/79/77 174/73/70 170/75/73 46/54/52
f 74/81/79 175/70/66 171/72/69 47/66/62
f 79/83/81 176/67/63 172/69/65 48/60/58
f 169/92/184 4/21/183 8/11/190
