# Blender 5.0.1
# www.blender.org
mtllib belt.mtl
o belt
v 0.000000 2.202396 0.540118
v -0.360875 2.203330 0.495380
v -0.683017 2.207617 0.372257
v -0.779466 2.215920 0.178039
v -0.780659 2.226736 -0.095894
v -0.396767 2.251499 -0.415169
v 0.000000 2.246400 -0.423771
v 0.000000 2.051458 -0.467001
v -0.415404 2.056547 -0.458570
v -0.830438 2.030331 -0.106153
v -0.825295 2.018914 0.182448
v -0.727333 2.010303 0.384105
v -0.374709 2.005499 0.520788
v 0.000000 2.004453 0.568171
v -0.710568 2.235749 -0.263115
v -0.756491 2.040192 -0.292878
v 0.000000 2.204784 0.528670
v -0.350219 2.205661 0.477525
v -0.651835 2.209675 0.361163
v -0.766792 2.217721 0.172157
v -0.755745 2.229879 -0.096726
v -0.380862 2.252301 -0.400586
v 0.000000 2.247209 -0.409184
v -0.686949 2.236850 -0.245227
v 0.000000 2.048795 -0.441766
v -0.368144 2.053842 -0.433330
v -0.778672 2.030667 -0.113900
v -0.790861 2.017945 0.169641
v -0.647990 2.009801 0.372188
v -0.342800 2.005717 0.493659
v 0.000000 2.004784 0.539421
v -0.681566 2.037921 -0.269362
v -0.162318 2.000678 0.569020
v 0.000000 1.999720 0.577320
v -0.161703 2.227759 0.544549
v 0.000000 2.231124 0.552355
v -0.113288 2.177826 0.563531
v -0.113649 2.063152 0.575867
v 0.000000 2.058787 0.576064
v 0.000000 2.179256 0.563105
v -0.161802 2.224097 0.491283
v -0.162443 1.996754 0.515687
v 0.000000 1.995759 0.524006
v 0.000000 2.227478 0.499101
v -0.113333 2.173619 0.504906
v -0.113716 2.058889 0.518070
v 0.000000 2.054317 0.517505
v 0.000000 2.175050 0.505395
v 0.360875 2.203330 0.495380
v 0.683017 2.207617 0.372257
v 0.779466 2.215920 0.178039
v 0.780659 2.226736 -0.095894
v 0.396767 2.251499 -0.415169
v 0.415404 2.056547 -0.458570
v 0.830438 2.030331 -0.106153
v 0.825295 2.018914 0.182448
v 0.727333 2.010303 0.384105
v 0.374709 2.005499 0.520788
v 0.710568 2.235749 -0.263115
v 0.756491 2.040192 -0.292878
v 0.350219 2.205661 0.477525
v 0.651835 2.209675 0.361163
v 0.766792 2.217721 0.172157
v 0.755745 2.229879 -0.096726
v 0.380862 2.252301 -0.400586
v 0.686949 2.236850 -0.245227
v 0.368144 2.053842 -0.433330
v 0.778672 2.030667 -0.113900
v 0.790861 2.017945 0.169641
v 0.647990 2.009801 0.372188
v 0.342800 2.005717 0.493659
v 0.681566 2.037921 -0.269362
v 0.162318 2.000678 0.569020
v 0.161703 2.227759 0.544549
v 0.113288 2.177826 0.563531
v 0.113649 2.063152 0.575867
v 0.161802 2.224097 0.491283
v 0.162443 1.996754 0.515687
v 0.113333 2.173619 0.504906
v 0.113716 2.058889 0.518070
vn -0.0000 0.1381 0.9904
vn -0.2381 0.1392 0.9612
vn -0.2423 0.1392 0.9602
vn -0.0244 0.9917 0.1265
vn -0.0225 0.9907 0.1345
vn -0.0395 0.9945 0.0968
vn -0.0498 0.9951 0.0850
vn -0.6415 0.1887 0.7435
vn -0.9443 0.2321 0.2335
vn -0.9438 0.2320 0.2355
vn -0.6731 0.1935 0.7138
vn -0.9523 0.2506 -0.1741
vn -0.9541 0.2501 -0.1646
vn -0.1098 0.9936 0.0276
vn -0.1045 0.9943 0.0228
vn -0.0688 0.9976 0.0058
vn -0.0720 0.9974 0.0065
vn -0.0089 0.9992 -0.0402
vn -0.0322 0.9993 -0.0162
vn -0.0000 0.9981 -0.0615
vn -0.0000 0.9883 0.1526
vn -0.0000 -0.9958 -0.0920
vn -0.0111 -0.9955 -0.0940
vn -0.0036 -0.9952 -0.0979
vn -0.0169 -0.9995 -0.0266
vn -0.0112 -0.9998 -0.0192
vn -0.0034 -0.9999 -0.0119
vn -0.0059 -0.9999 -0.0135
vn -0.0943 0.9940 0.0556
vn -0.0861 0.9945 0.0600
vn -0.0061 -0.9976 -0.0685
vn -0.0036 -0.9965 -0.0831
vn -0.0119 -0.9987 -0.0497
vn -0.0140 -0.9988 -0.0469
vn -0.2385 0.2319 -0.9431
vn -0.7261 0.2622 -0.6356
vn -0.6975 0.2610 -0.6673
vn -0.2238 0.2313 -0.9468
vn -0.0000 -0.9999 -0.0106
vn -0.0184 -0.9992 -0.0363
vn -0.0185 -0.9992 -0.0356
vn -0.0000 0.2177 -0.9760
vn 0.1007 -0.1434 -0.9845
vn 0.1049 -0.1414 -0.9844
vn 0.1052 -0.0786 -0.9913
vn 0.0900 -0.0721 -0.9933
vn -0.0000 -0.1751 -0.9845
vn -0.1462 0.1906 0.9707
vn -0.1343 0.0258 0.9906
vn -0.1581 0.0396 0.9866
vn -0.1528 0.1860 0.9706
vn -0.0000 0.2669 0.9637
vn -0.0000 -0.0334 0.9994
vn -0.0000 -0.0450 -0.9990
vn -0.7096 0.7031 -0.0468
vn -0.7152 0.6973 -0.0464
vn -0.7306 -0.6809 0.0519
vn -0.6921 -0.7197 0.0547
vn 0.7185 -0.6937 0.0495
vn 0.7021 -0.7102 0.0507
vn -0.0000 -0.9974 0.0721
vn -0.0000 0.9972 -0.0749
vn 0.7290 0.6826 -0.0519
vn 0.7147 0.6975 -0.0530
vn -0.0000 0.9977 -0.0684
vn -0.0000 -0.9973 0.0737
vn 0.2423 0.1392 0.9602
vn 0.2381 0.1392 0.9612
vn 0.0245 0.9917 0.1265
vn 0.0498 0.9951 0.0850
vn 0.0395 0.9945 0.0968
vn 0.0225 0.9907 0.1345
vn 0.6415 0.1887 0.7435
vn 0.6731 0.1935 0.7138
vn 0.9438 0.2320 0.2355
vn 0.9443 0.2321 0.2335
vn 0.9541 0.2501 -0.1646
vn 0.9523 0.2506 -0.1741
vn 0.1098 0.9936 0.0276
vn 0.0720 0.9974 0.0065
vn 0.0688 0.9976 0.0058
vn 0.1045 0.9943 0.0228
vn 0.0322 0.9993 -0.0162
vn 0.0089 0.9992 -0.0402
vn 0.0036 -0.9952 -0.0979
vn 0.0111 -0.9955 -0.0940
vn 0.0169 -0.9995 -0.0266
vn 0.0059 -0.9999 -0.0135
vn 0.0034 -0.9999 -0.0119
vn 0.0112 -0.9998 -0.0192
vn 0.0861 0.9945 0.0600
vn 0.0943 0.9940 0.0556
vn 0.0061 -0.9976 -0.0685
vn 0.0140 -0.9988 -0.0469
vn 0.0119 -0.9987 -0.0497
vn 0.0036 -0.9965 -0.0831
vn 0.2385 0.2319 -0.9431
vn 0.2238 0.2313 -0.9468
vn 0.6975 0.2610 -0.6673
vn 0.7261 0.2622 -0.6356
vn 0.0185 -0.9992 -0.0356
vn 0.0184 -0.9992 -0.0363
vn -0.1007 -0.1434 -0.9845
vn -0.0900 -0.0721 -0.9933
vn -0.1052 -0.0786 -0.9913
vn -0.1049 -0.1414 -0.9844
vn 0.1462 0.1906 0.9707
vn 0.1528 0.1860 0.9706
vn 0.1581 0.0396 0.9866
vn 0.1343 0.0258 0.9906
vn 0.7096 0.7031 -0.0468
vn 0.6921 -0.7197 0.0547
vn 0.7306 -0.6809 0.0519
vn 0.7152 0.6973 -0.0464
vn -0.7185 -0.6937 0.0495
vn -0.7021 -0.7102 0.0507
vn -0.7147 0.6975 -0.0530
vn -0.7290 0.6826 -0.0519
vt 0.500353 0.934527
vt 0.421071 0.934527
vt 0.421071 0.799693
vt 0.500353 0.799693
vt 0.421071 0.949594
vt 0.345431 0.949594
vt 0.345431 0.934527
vt 0.295327 0.934527
vt 0.295327 0.799693
vt 0.345431 0.799693
vt 0.233904 0.934527
vt 0.233904 0.799693
vt 0.233904 0.949594
vt 0.193751 0.949594
vt 0.193751 0.934527
vt 0.115284 0.949594
vt 0.115284 0.934527
vt 0.029369 0.949594
vt 0.029369 0.934527
vt 0.500353 0.949594
vt 0.029369 0.799693
vt 0.029369 0.764294
vt 0.115284 0.764294
vt 0.115284 0.799693
vt 0.345431 0.764294
vt 0.421071 0.764294
vt 0.295327 0.949594
vt 0.193751 0.799693
vt 0.193751 0.764294
vt 0.233904 0.764294
vt 0.500353 0.764294
vt 0.295327 0.764294
vt 0.853766 0.506478
vt 0.817801 0.436646
vt 0.821232 0.246141
vt 0.868117 0.158461
vt 0.730272 0.532364
vt 0.729962 0.473401
vt 0.429882 0.087124
vt 0.429882 0.614598
vt 0.368207 0.471286
vt 0.367789 0.208995
vt 0.229227 0.087124
vt 0.229227 0.206076
vt 0.229227 0.614598
vt 0.229227 0.481286
vt 0.730435 0.218354
vt 0.730351 0.134668
vt 0.916789 0.611484
vt 0.916789 0.053655
vt 0.784526 0.382370
vt 0.729329 0.396673
vt 0.730433 0.284515
vt 0.781703 0.303823
vt 0.730366 0.611484
vt 0.730366 0.053655
vt 0.579635 0.799693
vt 0.579635 0.934527
vt 0.655275 0.934527
vt 0.655275 0.949594
vt 0.579635 0.949594
vt 0.655275 0.799693
vt 0.705378 0.799693
vt 0.705378 0.934527
vt 0.766802 0.799693
vt 0.766802 0.934527
vt 0.806955 0.934527
vt 0.806955 0.949594
vt 0.766802 0.949594
vt 0.885422 0.934527
vt 0.885422 0.949594
vt 0.971336 0.934527
vt 0.971336 0.949594
vt 0.971336 0.799693
vt 0.885422 0.799693
vt 0.885422 0.764294
vt 0.971336 0.764294
vt 0.579635 0.764294
vt 0.655275 0.764294
vt 0.705378 0.949594
vt 0.806955 0.799693
vt 0.766802 0.764294
vt 0.806955 0.764294
vt 0.705378 0.764294
vt 0.606750 0.506852
vt 0.593366 0.158500
vt 0.640865 0.248017
vt 0.642265 0.440096
vt 0.028572 0.087124
vt 0.090664 0.208995
vt 0.090247 0.471286
vt 0.028572 0.614598
vt 0.543943 0.611484
vt 0.543943 0.053655
vt 0.674136 0.388833
vt 0.680893 0.306749
s 1
usemtl belt
f 1/1/1 2/2/2 13/3/3 14/4/1
f 2/2/4 18/5/5 19/6/6 3/7/7
f 3/7/8 4/8/9 11/9/10 12/10/11
f 4/8/9 5/11/12 10/12/13 11/9/10
f 5/11/14 21/13/15 24/14/16 15/15/17
f 15/15/17 24/14/16 22/16/18 6/17/19
f 6/17/19 22/16/18 23/18/20 7/19/20
f 1/1/21 17/20/21 18/5/5 2/2/4
f 8/21/22 25/22/22 26/23/23 9/24/24
f 12/10/25 29/25/26 30/26/27 13/3/28
f 3/7/7 19/6/6 20/27/29 4/8/30
f 16/28/31 32/29/32 27/30/33 10/12/34
f 4/8/30 20/27/29 21/13/15 5/11/14
f 9/24/24 26/23/23 32/29/32 16/28/31
f 2/2/2 3/7/8 12/10/11 13/3/3
f 9/24/35 16/28/36 15/15/37 6/17/38
f 13/3/28 30/26/27 31/31/39 14/4/39
f 10/12/34 27/30/33 28/32/40 11/9/41
f 11/9/41 28/32/40 29/25/26 12/10/25
f 16/28/36 10/12/13 5/11/12 15/15/37
f 8/21/42 9/24/35 6/17/38 7/19/42
f 41/33/43 45/34/44 46/35/45 42/36/46
f 44/37/47 48/38/47 45/34/44 41/33/43
f 35/39/48 33/40/49 38/41/50 37/42/51
f 36/43/52 35/39/48 37/42/51 40/44/52
f 33/40/49 34/45/53 39/46/53 38/41/50
f 42/36/46 46/35/45 47/47/54 43/48/54
f 35/49/55 41/33/56 42/36/57 33/50/58
f 37/51/59 45/34/60 48/38/61 40/52/61
f 39/53/62 47/47/62 46/35/63 38/54/64
f 36/55/65 44/37/65 41/33/56 35/49/55
f 33/50/58 42/36/57 43/48/66 34/56/66
f 38/54/64 46/35/63 45/34/60 37/51/59
f 1/1/1 14/4/1 58/57/67 49/58/68
f 49/58/69 50/59/70 62/60/71 61/61/72
f 50/59/73 57/62/74 56/63/75 51/64/76
f 51/64/76 56/63/75 55/65/77 52/66/78
f 52/66/79 59/67/80 66/68/81 64/69/82
f 59/67/80 53/70/83 65/71/84 66/68/81
f 53/70/83 7/72/20 23/73/20 65/71/84
f 1/1/21 49/58/69 61/61/72 17/20/21
f 8/74/22 54/75/85 67/76/86 25/77/22
f 57/62/87 58/57/88 71/78/89 70/79/90
f 50/59/70 51/64/91 63/80/92 62/60/71
f 60/81/93 55/65/94 68/82/95 72/83/96
f 51/64/91 52/66/79 64/69/82 63/80/92
f 54/75/85 60/81/93 72/83/96 67/76/86
f 49/58/68 58/57/67 57/62/74 50/59/73
f 54/75/97 53/70/98 59/67/99 60/81/100
f 58/57/88 14/4/39 31/31/39 71/78/89
f 55/65/94 56/63/101 69/84/102 68/82/95
f 56/63/101 57/62/87 70/79/90 69/84/102
f 60/81/100 59/67/99 52/66/78 55/65/77
f 8/74/42 7/72/42 53/70/98 54/75/97
f 77/85/103 78/86/104 80/87/105 79/88/106
f 44/37/47 77/85/103 79/88/106 48/38/47
f 74/89/107 75/90/108 76/91/109 73/92/110
f 36/43/52 40/44/52 75/90/108 74/89/107
f 73/92/110 76/91/109 39/46/53 34/45/53
f 78/86/104 43/48/54 47/47/54 80/87/105
f 74/93/111 73/94/112 78/86/113 77/85/114
f 75/95/115 40/52/61 48/38/61 79/88/116
f 39/53/62 76/96/117 80/87/118 47/47/62
f 36/55/65 74/93/111 77/85/114 44/37/65
f 73/94/112 34/56/66 43/48/66 78/86/113
f 76/96/117 75/95/115 79/88/116 80/87/118
