# Blender 5.0.1
# www.blender.org
mtllib stubble.mtl
o stubble
v -0.094027 3.966638 0.477062
v -0.088929 3.966784 0.477892
v -0.107257 4.052612 0.548270
v -0.102178 4.052747 0.549206
v -0.086507 3.951286 0.452115
v -0.106774 4.069113 0.558250
v -0.106140 4.016786 0.524214
v -0.094507 4.017941 0.526331
v -0.099746 4.017958 0.525343
v -0.091478 3.966711 0.477477
v -0.104717 4.052680 0.548738
v -0.099389 3.987646 0.505358
v -0.091318 3.988102 0.506832
v -0.094918 3.988269 0.506130
v -0.159228 3.970392 0.464390
v -0.154239 3.970968 0.465603
v -0.184297 4.055237 0.529359
v -0.179333 4.055872 0.530643
v -0.148303 3.954875 0.440530
v -0.185991 4.072712 0.539914
v -0.179655 4.020693 0.507629
v -0.168200 4.022668 0.510723
v -0.172307 4.022638 0.509204
v -0.156733 3.970680 0.464997
v -0.181815 4.055555 0.530001
v -0.168837 3.986966 0.486628
v -0.159979 3.987988 0.488782
v -0.164502 3.987965 0.487719
v -0.025522 3.966638 0.484338
v -0.020425 3.966784 0.485168
v -0.039579 4.052070 0.556352
v -0.034500 4.052204 0.557288
v -0.018848 3.951286 0.459391
v -0.039114 4.069113 0.566993
v -0.038549 4.015790 0.532626
v -0.027856 4.016299 0.534744
v -0.032155 4.016963 0.533755
v -0.022973 3.966711 0.484753
v -0.037039 4.052137 0.556820
v -0.033101 3.987862 0.514807
v -0.024051 3.988122 0.516281
v -0.028630 3.988484 0.515579
v -0.093664 3.969003 0.474499
v -0.088567 3.969149 0.475329
v -0.106894 4.054977 0.545707
v -0.101815 4.055112 0.546643
v -0.086144 3.953651 0.449552
v -0.106411 4.071478 0.557155
v -0.105777 4.019151 0.521651
v -0.094144 4.020306 0.523768
v -0.099383 4.020323 0.522780
v -0.091115 3.969076 0.474914
v -0.104354 4.055045 0.546175
v -0.099027 3.990011 0.502795
v -0.090955 3.990467 0.504269
v -0.094555 3.990634 0.503567
v -0.158865 3.972757 0.461827
v -0.153876 3.973333 0.463040
v -0.183934 4.057602 0.526796
v -0.178971 4.058237 0.528080
v -0.147941 3.957240 0.437967
v -0.185629 4.075078 0.537351
v -0.179292 4.023058 0.505066
v -0.167838 4.025033 0.508160
v -0.171944 4.025003 0.506641
v -0.156370 3.973045 0.462434
v -0.181452 4.057920 0.527438
v -0.168474 3.989331 0.484065
v -0.159616 3.990353 0.486219
v -0.164139 3.990330 0.485156
v -0.025159 3.969003 0.481775
v -0.020062 3.969149 0.482605
v -0.039216 4.054435 0.553789
v -0.034137 4.054569 0.554725
v -0.018485 3.953651 0.456828
v -0.038752 4.071478 0.564430
v -0.038186 4.018155 0.530063
v -0.027493 4.018664 0.532181
v -0.031792 4.019328 0.531192
v -0.022611 3.969076 0.482190
v -0.036676 4.054502 0.554257
v -0.032738 3.990227 0.512244
v -0.023688 3.990487 0.513718
v -0.028267 3.990849 0.513016
v 0.094027 3.966638 0.477062
v 0.088929 3.966784 0.477892
v 0.107257 4.052612 0.548270
v 0.102178 4.052747 0.549206
v 0.086507 3.951286 0.452115
v 0.106774 4.069113 0.558250
v 0.106140 4.016786 0.524214
v 0.094507 4.017941 0.526331
v 0.099746 4.017958 0.525343
v 0.091478 3.966711 0.477477
v 0.104717 4.052680 0.548738
v 0.099389 3.987646 0.505358
v 0.091318 3.988102 0.506832
v 0.094918 3.988269 0.506130
v 0.159228 3.970392 0.464390
v 0.154239 3.970968 0.465603
v 0.184297 4.055237 0.529359
v 0.179333 4.055872 0.530643
v 0.148303 3.954875 0.440530
v 0.185991 4.072712 0.539914
v 0.179655 4.020693 0.507629
v 0.168200 4.022668 0.510723
v 0.172307 4.022638 0.509204
v 0.156733 3.970680 0.464997
v 0.181815 4.055555 0.530001
v 0.168837 3.986966 0.486628
v 0.159979 3.987988 0.488782
v 0.164502 3.987965 0.487719
v 0.025522 3.966638 0.484338
v 0.020425 3.966784 0.485168
v 0.039579 4.052070 0.556352
v 0.034500 4.052204 0.557288
v 0.018848 3.951286 0.459391
v 0.039114 4.069113 0.566993
v 0.038549 4.015790 0.532626
v 0.027856 4.016299 0.534744
v 0.032155 4.016963 0.533755
v 0.022973 3.966711 0.484753
v 0.037039 4.052137 0.556820
v 0.033101 3.987862 0.514807
v 0.024051 3.988122 0.516281
v 0.028630 3.988484 0.515579
v 0.093664 3.969003 0.474499
v 0.088567 3.969149 0.475329
v 0.106894 4.054977 0.545707
v 0.101815 4.055112 0.546643
v 0.086144 3.953651 0.449552
v 0.106411 4.071478 0.557155
v 0.105777 4.019151 0.521651
v 0.094144 4.020306 0.523768
v 0.099383 4.020323 0.522780
v 0.091115 3.969076 0.474914
v 0.104354 4.055045 0.546175
v 0.099027 3.990011 0.502795
v 0.090955 3.990467 0.504269
v 0.094555 3.990634 0.503567
v 0.158865 3.972757 0.461827
v 0.153876 3.973333 0.463040
v 0.183934 4.057602 0.526796
v 0.178971 4.058237 0.528080
v 0.147941 3.957240 0.437967
v 0.185629 4.075078 0.537351
v 0.179292 4.023058 0.505066
v 0.167838 4.025033 0.508160
v 0.171944 4.025003 0.506641
v 0.156370 3.973045 0.462434
v 0.181452 4.057920 0.527438
v 0.168474 3.989331 0.484065
v 0.159616 3.990353 0.486219
v 0.164139 3.990330 0.485156
v 0.025159 3.969003 0.481775
v 0.020062 3.969149 0.482605
v 0.039216 4.054435 0.553789
v 0.034137 4.054569 0.554725
v 0.018485 3.953651 0.456828
v 0.038752 4.071478 0.564430
v 0.038186 4.018155 0.530063
v 0.027493 4.018664 0.532181
v 0.031792 4.019328 0.531192
v 0.022611 3.969076 0.482190
v 0.036676 4.054502 0.554257
v 0.032738 3.990227 0.512244
v 0.023688 3.990487 0.513718
v 0.028267 3.990849 0.513016
vn -0.1101 -0.5586 0.8221
vn -0.1581 -0.5597 0.8135
vn -0.1458 -0.5399 0.8290
vn -0.1261 -0.5370 0.8341
vn -0.0616 -0.5550 0.8296
vn -0.1035 -0.5376 0.8368
vn -0.0394 -0.8305 0.5557
vn -0.0585 -0.8580 0.5103
vn -0.0636 -0.8316 0.5517
vn -0.0940 -0.6836 0.7238
vn -0.1456 -0.6862 0.7127
vn -0.0900 -0.8300 0.5504
vn -0.1429 -0.5092 0.8487
vn -0.0383 -0.6900 0.7228
vn -0.1489 -0.5513 0.8209
vn -0.2334 -0.5578 0.7965
vn -0.1929 -0.5432 0.8171
vn -0.1494 -0.5378 0.8297
vn -0.0600 -0.5396 0.8398
vn -0.1035 -0.5332 0.8396
vn -0.0148 -0.8211 0.5706
vn -0.0326 -0.8446 0.5344
vn -0.0416 -0.8258 0.5624
vn -0.1014 -0.6817 0.7245
vn -0.1695 -0.6974 0.6963
vn -0.0684 -0.8279 0.5567
vn -0.1504 -0.5218 0.8397
vn -0.0278 -0.6812 0.7316
vn -0.1425 -0.5508 0.8224
vn -0.2182 -0.5507 0.8057
vn -0.1826 -0.5380 0.8229
vn -0.1440 -0.5372 0.8311
vn -0.0637 -0.5467 0.8349
vn -0.1041 -0.5376 0.8368
vn -0.0363 -0.8386 0.5435
vn -0.0588 -0.8571 0.5117
vn -0.0634 -0.8404 0.5382
vn -0.1063 -0.6915 0.7145
vn -0.1703 -0.7043 0.6891
vn -0.0912 -0.8400 0.5348
vn -0.1413 -0.5216 0.8414
vn -0.0364 -0.6976 0.7156
vn 0.1101 0.5586 -0.8221
vn 0.1223 0.5632 -0.8172
vn 0.7966 0.4612 -0.3907
vn 0.8000 0.4173 -0.4311
vn -0.6550 0.3592 -0.6648
vn -0.6324 0.4371 -0.6395
vn -0.6783 0.5145 -0.5246
vn 0.0635 0.8316 -0.5517
vn 0.1741 -0.0891 -0.9807
vn 0.0940 0.6836 -0.7238
vn 0.8281 0.4289 -0.3610
vn 0.7746 0.5545 -0.3043
vn 0.0338 0.9977 0.0580
vn -0.6815 0.4080 -0.6076
vn 0.1489 0.5513 -0.8209
vn 0.1494 0.5378 -0.8297
vn 0.7936 0.4968 -0.3513
vn 0.8141 0.4572 -0.3580
vn -0.6415 0.3029 -0.7048
vn -0.6257 0.3587 -0.6928
vn -0.6597 0.4422 -0.6076
vn 0.0415 0.8258 -0.5624
vn 0.2627 -0.0948 -0.9602
vn 0.1014 0.6817 -0.7245
vn 0.8193 0.4961 -0.2874
vn 0.7440 0.6199 -0.2492
vn -0.1140 0.9928 0.0378
vn -0.6758 0.3194 -0.6643
vn 0.1425 0.5508 -0.8224
vn 0.1440 0.5372 -0.8311
vn 0.8075 0.4317 -0.4020
vn 0.8168 0.3991 -0.4166
vn -0.6531 0.3628 -0.6647
vn -0.6381 0.4173 -0.6470
vn -0.6682 0.5291 -0.5231
vn 0.0634 0.8404 -0.5382
vn 0.1531 -0.0907 -0.9840
vn 0.1062 0.6915 -0.7145
vn 0.8341 0.4451 -0.3258
vn 0.7765 0.5568 -0.2949
vn -0.0331 0.9979 0.0549
vn -0.6951 0.3958 -0.6001
vn -0.9764 -0.0710 -0.2037
vn 0.1088 -0.7382 -0.6658
vn 0.2608 -0.7276 -0.6345
vn 0.9788 0.0614 0.1952
vn 0.9722 0.0866 0.2176
vn -0.1180 0.7380 0.6644
vn -0.9876 -0.0177 -0.1561
vn -0.9781 -0.0646 -0.1981
vn 0.9621 0.1186 0.2456
vn 0.9409 0.1719 0.2918
vn 0.9932 -0.0308 0.1122
vn 0.9893 0.0059 0.1455
vn -0.2284 0.7314 0.6426
vn -0.9874 -0.0190 -0.1573
vn -0.9944 0.0545 -0.0905
vn -0.9398 -0.1743 -0.2939
vn 0.1413 -0.7374 -0.6605
vn 0.9934 -0.0335 0.1097
vn 0.9833 0.0411 0.1771
vn -0.9710 -0.0907 -0.2211
vn -0.9493 -0.1525 -0.2751
vn 0.9836 0.0399 0.1760
vn 0.9648 0.0817 0.2502
vn 0.9749 0.0768 0.2089
vn -0.1955 0.6186 0.7610
vn -0.9935 0.0596 -0.0966
vn -0.9795 -0.0588 -0.1929
vn -0.9856 -0.0290 -0.1663
vn -0.9798 -0.0574 -0.1917
vn 0.9916 -0.0129 0.1284
vn 0.1101 -0.5586 0.8221
vn 0.1261 -0.5370 0.8341
vn 0.1458 -0.5399 0.8290
vn 0.1581 -0.5597 0.8135
vn 0.0616 -0.5550 0.8296
vn 0.1035 -0.5376 0.8368
vn 0.0394 -0.8305 0.5557
vn 0.0636 -0.8316 0.5517
vn 0.0585 -0.8580 0.5103
vn 0.0940 -0.6836 0.7238
vn 0.1456 -0.6862 0.7127
vn 0.0900 -0.8300 0.5504
vn 0.1429 -0.5092 0.8487
vn 0.0383 -0.6900 0.7228
vn 0.1489 -0.5513 0.8209
vn 0.1494 -0.5378 0.8297
vn 0.1929 -0.5432 0.8171
vn 0.2334 -0.5578 0.7965
vn 0.0600 -0.5396 0.8398
vn 0.1035 -0.5332 0.8396
vn 0.0148 -0.8211 0.5706
vn 0.0416 -0.8258 0.5624
vn 0.0326 -0.8446 0.5344
vn 0.1014 -0.6817 0.7245
vn 0.1696 -0.6974 0.6963
vn 0.0684 -0.8279 0.5567
vn 0.1504 -0.5218 0.8397
vn 0.0278 -0.6812 0.7316
vn 0.1425 -0.5508 0.8224
vn 0.1440 -0.5372 0.8311
vn 0.1826 -0.5380 0.8229
vn 0.2182 -0.5507 0.8057
vn 0.0637 -0.5467 0.8349
vn 0.1041 -0.5376 0.8368
vn 0.0363 -0.8386 0.5435
vn 0.0634 -0.8404 0.5382
vn 0.0588 -0.8571 0.5117
vn 0.1063 -0.6915 0.7145
vn 0.1703 -0.7043 0.6891
vn 0.0912 -0.8400 0.5348
vn 0.1413 -0.5216 0.8414
vn 0.0364 -0.6976 0.7156
vn -0.1101 0.5586 -0.8221
vn -0.8000 0.4173 -0.4311
vn -0.7966 0.4612 -0.3907
vn -0.1223 0.5632 -0.8172
vn 0.6550 0.3592 -0.6648
vn 0.6324 0.4371 -0.6395
vn 0.6783 0.5145 -0.5246
vn -0.1741 -0.0891 -0.9807
vn -0.0635 0.8316 -0.5517
vn -0.0940 0.6836 -0.7238
vn -0.8281 0.4289 -0.3610
vn -0.7746 0.5545 -0.3043
vn -0.0338 0.9977 0.0580
vn 0.6815 0.4080 -0.6076
vn -0.1489 0.5513 -0.8209
vn -0.8141 0.4572 -0.3580
vn -0.7936 0.4968 -0.3514
vn -0.1494 0.5378 -0.8297
vn 0.6415 0.3029 -0.7048
vn 0.6257 0.3587 -0.6928
vn 0.6597 0.4422 -0.6076
vn -0.2627 -0.0948 -0.9602
vn -0.0415 0.8258 -0.5624
vn -0.1014 0.6817 -0.7245
vn -0.8193 0.4961 -0.2874
vn -0.7440 0.6199 -0.2492
vn 0.1140 0.9928 0.0378
vn 0.6758 0.3194 -0.6643
vn -0.1424 0.5508 -0.8224
vn -0.8168 0.3992 -0.4166
vn -0.8075 0.4317 -0.4020
vn -0.1440 0.5372 -0.8311
vn 0.6531 0.3628 -0.6647
vn 0.6381 0.4173 -0.6470
vn 0.6682 0.5291 -0.5231
vn -0.1531 -0.0907 -0.9840
vn -0.0634 0.8404 -0.5382
vn -0.1062 0.6915 -0.7145
vn -0.8341 0.4451 -0.3258
vn -0.7765 0.5568 -0.2949
vn 0.0331 0.9979 0.0549
vn 0.6951 0.3958 -0.6001
vn 0.9764 -0.0710 -0.2037
vn -0.1088 -0.7381 -0.6658
vn -0.2608 -0.7276 -0.6346
vn -0.9789 0.0614 0.1952
vn -0.9722 0.0866 0.2176
vn 0.1180 0.7380 0.6644
vn 0.9876 -0.0177 -0.1561
vn 0.9781 -0.0646 -0.1981
vn -0.9621 0.1186 0.2456
vn -0.9409 0.1719 0.2918
vn -0.9932 -0.0308 0.1122
vn -0.9893 0.0059 0.1455
vn 0.2284 0.7314 0.6426
vn 0.9874 -0.0190 -0.1573
vn 0.9944 0.0545 -0.0905
vn 0.9398 -0.1743 -0.2939
vn -0.1413 -0.7374 -0.6605
vn -0.9934 -0.0335 0.1097
vn -0.9833 0.0411 0.1771
vn 0.9710 -0.0907 -0.2211
vn 0.9493 -0.1525 -0.2751
vn -0.9836 0.0399 0.1760
vn -0.9648 0.0817 0.2502
vn -0.9749 0.0768 0.2089
vn 0.1955 0.6186 0.7610
vn 0.9935 0.0596 -0.0966
vn 0.9795 -0.0588 -0.1929
vn 0.9856 -0.0290 -0.1663
vn 0.9798 -0.0574 -0.1917
vn -0.9916 -0.0129 0.1284
vt 0.254982 0.535255
vt 0.267851 0.535130
vt 0.249008 0.792047
vt 0.242771 0.791550
vt 0.239275 0.526604
vt 0.236533 0.791050
vt 0.269031 0.156446
vt 0.287502 0.043127
vt 0.275292 0.156984
vt 0.266842 0.316112
vt 0.275686 0.314878
vt 0.281552 0.157523
vt 0.237718 0.912845
vt 0.255858 0.311514
vt 0.076742 0.569801
vt 0.086829 0.570020
vt 0.059482 0.815112
vt 0.053386 0.812774
vt 0.058691 0.555443
vt 0.047290 0.810422
vt 0.108870 0.184155
vt 0.135705 0.069617
vt 0.114998 0.186276
vt 0.095914 0.313866
vt 0.107025 0.314038
vt 0.121125 0.188400
vt 0.043127 0.939415
vt 0.085267 0.306494
vt 0.421014 0.527906
vt 0.431575 0.523007
vt 0.415254 0.788039
vt 0.409016 0.787544
vt 0.405308 0.519252
vt 0.402778 0.787045
vt 0.437308 0.156446
vt 0.453702 0.043127
vt 0.443568 0.156984
vt 0.429673 0.317700
vt 0.440920 0.315020
vt 0.449829 0.157523
vt 0.403919 0.912845
vt 0.418690 0.313103
vt 0.255873 0.552713
vt 0.243662 0.809008
vt 0.249900 0.809499
vt 0.268743 0.552585
vt 0.240167 0.544062
vt 0.237424 0.808508
vt 0.269922 0.173901
vt 0.276183 0.174439
vt 0.288393 0.060585
vt 0.267733 0.333567
vt 0.276577 0.332333
vt 0.282443 0.174980
vt 0.238610 0.930303
vt 0.256749 0.328972
vt 0.077634 0.587259
vt 0.054277 0.830232
vt 0.060374 0.832570
vt 0.087721 0.587478
vt 0.059583 0.572901
vt 0.048181 0.827880
vt 0.109761 0.201613
vt 0.115889 0.203734
vt 0.136596 0.087075
vt 0.096805 0.331324
vt 0.107916 0.331496
vt 0.122016 0.205858
vt 0.044018 0.956873
vt 0.086158 0.323952
vt 0.421906 0.545364
vt 0.409908 0.805002
vt 0.416145 0.805494
vt 0.432466 0.540465
vt 0.406199 0.536710
vt 0.403670 0.804502
vt 0.438199 0.173901
vt 0.444459 0.174439
vt 0.454594 0.060585
vt 0.430564 0.335158
vt 0.441811 0.332478
vt 0.450720 0.174980
vt 0.404810 0.930303
vt 0.419581 0.330561
vt 0.745018 0.535255
vt 0.757229 0.791550
vt 0.750992 0.792047
vt 0.732149 0.535130
vt 0.760725 0.526604
vt 0.763467 0.791050
vt 0.730969 0.156446
vt 0.724708 0.156984
vt 0.712498 0.043127
vt 0.733159 0.316112
vt 0.724314 0.314878
vt 0.718448 0.157523
vt 0.762282 0.912845
vt 0.744142 0.311514
vt 0.923258 0.569801
vt 0.946614 0.812774
vt 0.940518 0.815112
vt 0.913171 0.570020
vt 0.941309 0.555443
vt 0.952710 0.810422
vt 0.891130 0.184155
vt 0.885002 0.186276
vt 0.864295 0.069617
vt 0.904086 0.313866
vt 0.892975 0.314038
vt 0.878875 0.188400
vt 0.956873 0.939415
vt 0.914734 0.306494
vt 0.578986 0.527906
vt 0.590984 0.787544
vt 0.584746 0.788039
vt 0.568425 0.523007
vt 0.594692 0.519252
vt 0.597221 0.787045
vt 0.562693 0.156446
vt 0.556432 0.156984
vt 0.546298 0.043127
vt 0.570327 0.317700
vt 0.559080 0.315020
vt 0.550171 0.157523
vt 0.596081 0.912845
vt 0.581310 0.313103
vt 0.744127 0.552713
vt 0.731257 0.552585
vt 0.750100 0.809499
vt 0.756338 0.809008
vt 0.759833 0.544062
vt 0.762576 0.808508
vt 0.730078 0.173901
vt 0.711607 0.060585
vt 0.723817 0.174439
vt 0.732267 0.333567
vt 0.723423 0.332333
vt 0.717557 0.174980
vt 0.761391 0.930303
vt 0.743251 0.328972
vt 0.922366 0.587259
vt 0.912279 0.587478
vt 0.939627 0.832570
vt 0.945723 0.830232
vt 0.940417 0.572901
vt 0.951819 0.827880
vt 0.890239 0.201613
vt 0.863404 0.087075
vt 0.884111 0.203734
vt 0.903195 0.331324
vt 0.892084 0.331496
vt 0.877984 0.205858
vt 0.955981 0.956873
vt 0.913842 0.323952
vt 0.578095 0.545364
vt 0.567534 0.540465
vt 0.583855 0.805494
vt 0.590092 0.805002
vt 0.593801 0.536710
vt 0.596331 0.804502
vt 0.561801 0.173901
vt 0.545407 0.060585
vt 0.555541 0.174439
vt 0.569436 0.335158
vt 0.558189 0.332478
vt 0.549280 0.174980
vt 0.595190 0.930303
vt 0.580419 0.330561
s 1
usemtl stubble
f 9/1/1 8/2/2 4/3/3 11/4/4
f 7/5/5 9/1/1 11/4/4 3/6/6
f 1/7/7 5/8/8 10/9/9
f 14/10/10 13/11/11 8/2/2 9/1/1
f 5/8/8 2/12/12 10/9/9
f 11/4/4 4/3/3 6/13/13
f 3/6/6 11/4/4 6/13/13
f 14/10/10 9/1/1 7/5/5 12/14/14
f 10/9/9 14/10/10 12/14/14 1/7/7
f 10/9/9 2/12/12 13/11/11 14/10/10
f 23/15/15 22/16/16 18/17/17 25/18/18
f 21/19/19 23/15/15 25/18/18 17/20/20
f 15/21/21 19/22/22 24/23/23
f 28/24/24 27/25/25 22/16/16 23/15/15
f 19/22/22 16/26/26 24/23/23
f 25/18/18 18/17/17 20/27/27
f 17/20/20 25/18/18 20/27/27
f 28/24/24 23/15/15 21/19/19 26/28/28
f 24/23/23 28/24/24 26/28/28 15/21/21
f 24/23/23 16/26/26 27/25/25 28/24/24
f 37/29/29 36/30/30 32/31/31 39/32/32
f 35/33/33 37/29/29 39/32/32 31/34/34
f 29/35/35 33/36/36 38/37/37
f 42/38/38 41/39/39 36/30/30 37/29/29
f 33/36/36 30/40/40 38/37/37
f 39/32/32 32/31/31 34/41/41
f 31/34/34 39/32/32 34/41/41
f 42/38/38 37/29/29 35/33/33 40/42/42
f 38/37/37 42/38/38 40/42/42 29/35/35
f 38/37/37 30/40/40 41/39/39 42/38/38
f 51/43/43 53/44/44 46/45/45 50/46/46
f 49/47/47 45/48/48 53/44/44 51/43/43
f 43/49/49 52/50/50 47/51/51
f 56/52/52 51/43/43 50/46/46 55/53/53
f 47/51/51 52/50/50 44/54/54
f 53/44/44 48/55/55 46/45/45
f 45/48/48 48/55/55 53/44/44
f 56/52/52 54/56/56 49/47/47 51/43/43
f 52/50/50 43/49/49 54/56/56 56/52/52
f 52/50/50 56/52/52 55/53/53 44/54/54
f 65/57/57 67/58/58 60/59/59 64/60/60
f 63/61/61 59/62/62 67/58/58 65/57/57
f 57/63/63 66/64/64 61/65/65
f 70/66/66 65/57/57 64/60/60 69/67/67
f 61/65/65 66/64/64 58/68/68
f 67/58/58 62/69/69 60/59/59
f 59/62/62 62/69/69 67/58/58
f 70/66/66 68/70/70 63/61/61 65/57/57
f 66/64/64 57/63/63 68/70/70 70/66/66
f 66/64/64 70/66/66 69/67/67 58/68/68
f 79/71/71 81/72/72 74/73/73 78/74/74
f 77/75/75 73/76/76 81/72/72 79/71/71
f 71/77/77 80/78/78 75/79/79
f 84/80/80 79/71/71 78/74/74 83/81/81
f 75/79/79 80/78/78 72/82/82
f 81/72/72 76/83/83 74/73/73
f 73/76/76 76/83/83 81/72/72
f 84/80/80 82/84/84 77/75/75 79/71/71
f 80/78/78 71/77/77 82/84/84 84/80/80
f 80/78/78 84/80/80 83/81/81 72/82/82
f 29/35/85 71/77/77 75/79/79 33/36/86
f 19/22/87 61/65/65 58/68/68 16/26/88
f 32/31/89 74/73/73 76/83/83 34/41/90
f 35/33/91 77/75/75 82/84/84 40/42/92
f 22/16/93 64/60/60 60/59/59 18/17/94
f 30/40/95 72/82/82 83/81/81 41/39/96
f 20/27/97 62/69/69 59/62/62 17/20/98
f 31/34/99 73/76/76 77/75/75 35/33/91
f 15/21/100 57/63/63 61/65/65 19/22/87
f 40/42/92 82/84/84 71/77/77 29/35/85
f 5/8/101 47/51/51 44/54/54 2/12/102
f 18/17/94 60/59/59 62/69/69 20/27/97
f 41/39/96 83/81/81 78/74/74 36/30/103
f 21/19/104 63/61/61 68/70/70 26/28/105
f 8/2/106 50/46/46 46/45/45 4/3/107
f 16/26/88 58/68/68 69/67/67 27/25/108
f 6/13/109 48/55/55 45/48/48 3/6/110
f 17/20/98 59/62/62 63/61/61 21/19/104
f 1/7/111 43/49/49 47/51/51 5/8/101
f 26/28/105 68/70/70 57/63/63 15/21/100
f 4/3/107 46/45/45 48/55/55 6/13/109
f 27/25/108 69/67/67 64/60/60 22/16/93
f 7/5/112 49/47/47 54/56/56 12/14/113
f 2/12/102 44/54/54 55/53/53 13/11/114
f 33/36/86 75/79/79 72/82/82 30/40/95
f 3/6/110 45/48/48 49/47/47 7/5/112
f 36/30/103 78/74/74 74/73/73 32/31/89
f 12/14/113 54/56/56 43/49/49 1/7/111
f 34/41/90 76/83/83 73/76/76 31/34/99
f 13/11/114 55/53/53 50/46/46 8/2/106
f 93/85/115 95/86/116 88/87/117 92/88/118
f 91/89/119 87/90/120 95/86/116 93/85/115
f 85/91/121 94/92/122 89/93/123
f 98/94/124 93/85/115 92/88/118 97/95/125
f 89/93/123 94/92/122 86/96/126
f 95/86/116 90/97/127 88/87/117
f 87/90/120 90/97/127 95/86/116
f 98/94/124 96/98/128 91/89/119 93/85/115
f 94/92/122 85/91/121 96/98/128 98/94/124
f 94/92/122 98/94/124 97/95/125 86/96/126
f 107/99/129 109/100/130 102/101/131 106/102/132
f 105/103/133 101/104/134 109/100/130 107/99/129
f 99/105/135 108/106/136 103/107/137
f 112/108/138 107/99/129 106/102/132 111/109/139
f 103/107/137 108/106/136 100/110/140
f 109/100/130 104/111/141 102/101/131
f 101/104/134 104/111/141 109/100/130
f 112/108/138 110/112/142 105/103/133 107/99/129
f 108/106/136 99/105/135 110/112/142 112/108/138
f 108/106/136 112/108/138 111/109/139 100/110/140
f 121/113/143 123/114/144 116/115/145 120/116/146
f 119/117/147 115/118/148 123/114/144 121/113/143
f 113/119/149 122/120/150 117/121/151
f 126/122/152 121/113/143 120/116/146 125/123/153
f 117/121/151 122/120/150 114/124/154
f 123/114/144 118/125/155 116/115/145
f 115/118/148 118/125/155 123/114/144
f 126/122/152 124/126/156 119/117/147 121/113/143
f 122/120/150 113/119/149 124/126/156 126/122/152
f 122/120/150 126/122/152 125/123/153 114/124/154
f 135/127/157 134/128/158 130/129/159 137/130/160
f 133/131/161 135/127/157 137/130/160 129/132/162
f 127/133/163 131/134/164 136/135/165
f 140/136/166 139/137/167 134/128/158 135/127/157
f 131/134/164 128/138/168 136/135/165
f 137/130/160 130/129/159 132/139/169
f 129/132/162 137/130/160 132/139/169
f 140/136/166 135/127/157 133/131/161 138/140/170
f 136/135/165 140/136/166 138/140/170 127/133/163
f 136/135/165 128/138/168 139/137/167 140/136/166
f 149/141/171 148/142/172 144/143/173 151/144/174
f 147/145/175 149/141/171 151/144/174 143/146/176
f 141/147/177 145/148/178 150/149/179
f 154/150/180 153/151/181 148/142/172 149/141/171
f 145/148/178 142/152/182 150/149/179
f 151/144/174 144/143/173 146/153/183
f 143/146/176 151/144/174 146/153/183
f 154/150/180 149/141/171 147/145/175 152/154/184
f 150/149/179 154/150/180 152/154/184 141/147/177
f 150/149/179 142/152/182 153/151/181 154/150/180
f 163/155/185 162/156/186 158/157/187 165/158/188
f 161/159/189 163/155/185 165/158/188 157/160/190
f 155/161/191 159/162/192 164/163/193
f 168/164/194 167/165/195 162/156/186 163/155/185
f 159/162/192 156/166/196 164/163/193
f 165/158/188 158/157/187 160/167/197
f 157/160/190 165/158/188 160/167/197
f 168/164/194 163/155/185 161/159/189 166/168/198
f 164/163/193 168/164/194 166/168/198 155/161/191
f 164/163/193 156/166/196 167/165/195 168/164/194
f 113/119/199 117/121/200 159/162/192 155/161/191
f 103/107/201 100/110/202 142/152/182 145/148/178
f 116/115/203 118/125/204 160/167/197 158/157/187
f 119/117/205 124/126/206 166/168/198 161/159/189
f 106/102/207 102/101/208 144/143/173 148/142/172
f 114/124/209 125/123/210 167/165/195 156/166/196
f 104/111/211 101/104/212 143/146/176 146/153/183
f 115/118/213 119/117/205 161/159/189 157/160/190
f 99/105/214 103/107/201 145/148/178 141/147/177
f 124/126/206 113/119/199 155/161/191 166/168/198
f 89/93/215 86/96/216 128/138/168 131/134/164
f 102/101/208 104/111/211 146/153/183 144/143/173
f 125/123/210 120/116/217 162/156/186 167/165/195
f 105/103/218 110/112/219 152/154/184 147/145/175
f 92/88/220 88/87/221 130/129/159 134/128/158
f 100/110/202 111/109/222 153/151/181 142/152/182
f 90/97/223 87/90/224 129/132/162 132/139/169
f 101/104/212 105/103/218 147/145/175 143/146/176
f 85/91/225 89/93/215 131/134/164 127/133/163
f 110/112/219 99/105/214 141/147/177 152/154/184
f 88/87/221 90/97/223 132/139/169 130/129/159
f 111/109/222 106/102/207 148/142/172 153/151/181
f 91/89/226 96/98/227 138/140/170 133/131/161
f 86/96/216 97/95/228 139/137/167 128/138/168
f 117/121/200 114/124/209 156/166/196 159/162/192
f 87/90/224 91/89/226 133/131/161 129/132/162
f 120/116/217 116/115/203 158/157/187 162/156/186
f 96/98/227 85/91/225 127/133/163 138/140/170
f 118/125/204 115/118/213 157/160/190 160/167/197
f 97/95/228 92/88/220 134/128/158 139/137/167
